<svg width="29" height="23" viewBox="0 0 29 23" fill="none" xmlns="http://www.w3.org/2000/svg">
<path d="M27.1128 1.69758e-06H7.24404C6.86854 1.69758e-06 6.50841 0.151118 6.24288 0.420107C5.97736 0.689095 5.82819 1.05392 5.82819 1.43433V5.75055H12.9238V2.87528H21.4385V17.2528H27.115C27.3009 17.2528 27.485 17.2157 27.6568 17.1436C27.8286 17.0715 27.9847 16.9658 28.1162 16.8327C28.2476 16.6995 28.3519 16.5413 28.4231 16.3673C28.4942 16.1933 28.5308 16.0068 28.5308 15.8184V1.43433C28.5308 1.24578 28.4942 1.05909 28.4229 0.884926C28.3516 0.710761 28.2471 0.552544 28.1154 0.419326C27.9837 0.286107 27.8273 0.180501 27.6553 0.108549C27.4833 0.0365976 27.2989 -0.000288371 27.1128 1.69758e-06ZM10.4373 4.62736C10.4373 4.73446 10.3953 4.83718 10.3206 4.91291C10.2458 4.98864 10.1444 5.03118 10.0387 5.03118H8.70782C8.6021 5.03118 8.50071 4.98864 8.42595 4.91291C8.3512 4.83718 8.3092 4.73446 8.3092 4.62736V3.2802C8.3092 3.1731 8.3512 3.07039 8.42595 2.99466C8.50071 2.91893 8.6021 2.87638 8.70782 2.87638H10.0387C10.1444 2.87638 10.2458 2.91893 10.3206 2.99466C10.3953 3.07039 10.4373 3.1731 10.4373 3.2802V4.62736ZM26.0487 13.9726C26.0487 14.0797 26.0068 14.1824 25.932 14.2581C25.8572 14.3338 25.7559 14.3764 25.6501 14.3764H24.3192C24.2135 14.3764 24.1121 14.3338 24.0374 14.2581C23.9626 14.1824 23.9206 14.0797 23.9206 13.9726V12.6254C23.9206 12.5183 23.9626 12.4156 24.0374 12.3399C24.1121 12.2641 24.2135 12.2216 24.3192 12.2216H25.6501C25.7559 12.2216 25.8572 12.2641 25.932 12.3399C26.0068 12.4156 26.0487 12.5183 26.0487 12.6254V13.9726ZM26.0487 9.29996C26.0487 9.40706 26.0068 9.50978 25.932 9.58551C25.8572 9.66124 25.7559 9.70378 25.6501 9.70378H24.3192C24.2135 9.70378 24.1121 9.66124 24.0374 9.58551C23.9626 9.50978 23.9206 9.40706 23.9206 9.29996V7.9528C23.9206 7.8457 23.9626 7.74299 24.0374 7.66725C24.1121 7.59152 24.2135 7.54898 24.3192 7.54898H25.6501C25.7559 7.54898 25.8572 7.59152 25.932 7.66725C26.0068 7.74299 26.0487 7.8457 26.0487 7.9528V9.29996ZM26.0487 4.62736C26.0487 4.73446 26.0068 4.83718 25.932 4.91291C25.8572 4.98864 25.7559 5.03118 25.6501 5.03118H24.3192C24.2135 5.03118 24.1121 4.98864 24.0374 4.91291C23.9626 4.83718 23.9206 4.73446 23.9206 4.62736V3.2802C23.9206 3.1731 23.9626 3.07039 24.0374 2.99466C24.1121 2.91893 24.2135 2.87638 24.3192 2.87638H25.6501C25.7559 2.87638 25.8572 2.91893 25.932 2.99466C26.0068 3.07039 26.0487 3.1731 26.0487 3.2802V4.62736ZM18.5981 7.18819H1.56429C1.37809 7.18819 1.19371 7.2254 1.02172 7.29769C0.849723 7.36998 0.693495 7.47592 0.561978 7.60946C0.430461 7.74301 0.326238 7.90152 0.255277 8.07592C0.184317 8.25032 0.148012 8.43719 0.148441 8.62583V21.5657C0.148441 21.754 0.185063 21.9405 0.256217 22.1146C0.32737 22.2886 0.431661 22.4467 0.563135 22.5799C0.694609 22.7131 0.850691 22.8187 1.02247 22.8908C1.19425 22.9629 1.37836 23 1.56429 23H18.5981C18.784 23 18.9681 22.9629 19.1399 22.8908C19.3117 22.8187 19.4678 22.7131 19.5993 22.5799C19.7307 22.4467 19.835 22.2886 19.9062 22.1146C19.9773 21.9405 20.0139 21.754 20.0139 21.5657V8.62583C20.0144 8.43719 19.9781 8.25032 19.9071 8.07592C19.8361 7.90152 19.7319 7.74301 19.6004 7.60946C19.4689 7.47592 19.3127 7.36998 19.1407 7.29769C18.9687 7.2254 18.7843 7.18819 18.5981 7.18819ZM4.4058 10.0646C4.68583 10.0646 4.95957 10.1487 5.19241 10.3063C5.42524 10.4639 5.60672 10.6879 5.71388 10.95C5.82104 11.2121 5.84908 11.5005 5.79445 11.7787C5.73982 12.057 5.60497 12.3125 5.40696 12.5131C5.20895 12.7137 4.95667 12.8503 4.68202 12.9057C4.40737 12.961 4.12269 12.9326 3.86398 12.824C3.60527 12.7155 3.38414 12.5316 3.22856 12.2958C3.07299 12.0599 2.98995 11.7826 2.98995 11.4989C2.98995 11.1185 3.13912 10.7537 3.40464 10.4847C3.67017 10.2157 4.03029 10.0646 4.4058 10.0646ZM17.179 20.1291H2.98668V18.6948L5.82492 15.8195L7.24078 17.2539L12.9173 11.5033L17.1746 15.8162L17.179 20.1291Z" fill="white"/>
</svg>
