<svg xmlns="http://www.w3.org/2000/svg" width="146.244" height="146.244" viewBox="0 0 146.244 146.244">
  <g id="events-calendar-svgrepo-com" opacity="0.1">
    <g id="Group_5025" data-name="Group 5025">
      <g id="Group_5024" data-name="Group 5024">
        <path id="Path_10629" data-name="Path 10629" d="M130.54,0H15.7A15.749,15.749,0,0,0,0,15.711V130.54a15.757,15.757,0,0,0,15.7,15.7H130.54a15.761,15.761,0,0,0,15.7-15.7V15.711A15.754,15.754,0,0,0,130.54,0ZM47.919,10.857H98.3V23.879H47.919Zm84.738,120.338H13.573V36.317H132.657v94.877Z" fill="#010002"/>
        <rect id="Rectangle_2243" data-name="Rectangle 2243" width="15.704" height="15.711" transform="translate(25.593 79.494)" fill="#010002"/>
        <rect id="Rectangle_2244" data-name="Rectangle 2244" width="15.704" height="15.704" transform="translate(25.593 104.362)" fill="#010002"/>
        <rect id="Rectangle_2245" data-name="Rectangle 2245" width="15.697" height="15.704" transform="translate(51.93 54.633)" fill="#010002"/>
        <rect id="Rectangle_2246" data-name="Rectangle 2246" width="15.697" height="15.711" transform="translate(51.93 79.494)" fill="#010002"/>
        <rect id="Rectangle_2247" data-name="Rectangle 2247" width="15.697" height="15.704" transform="translate(51.93 104.362)" fill="#010002"/>
        <rect id="Rectangle_2248" data-name="Rectangle 2248" width="15.711" height="15.704" transform="translate(78.247 54.633)" fill="#010002"/>
        <rect id="Rectangle_2249" data-name="Rectangle 2249" width="15.711" height="15.711" transform="translate(78.247 79.494)" fill="#010002"/>
        <rect id="Rectangle_2250" data-name="Rectangle 2250" width="15.711" height="15.704" transform="translate(78.247 104.362)" fill="#010002"/>
        <rect id="Rectangle_2251" data-name="Rectangle 2251" width="15.711" height="15.704" transform="translate(104.571 54.633)" fill="#010002"/>
        <rect id="Rectangle_2252" data-name="Rectangle 2252" width="15.711" height="15.711" transform="translate(104.571 79.494)" fill="#010002"/>
      </g>
    </g>
  </g>
</svg>
